<svg width="125" height="125" viewBox="0 0 125 125" fill="none" xmlns="http://www.w3.org/2000/svg">
<path d="M81.762 120.417H19.5661C13.2984 120.417 8.2168 116.796 8.2168 112.33V43.1009C8.2168 38.6347 13.2984 35.0137 19.5661 35.0137H81.762C88.0296 35.0137 93.1113 38.6347 93.1113 43.1009V112.33C93.1113 116.796 88.0296 120.417 81.762 120.417Z" fill="#F5E7C4" stroke="#1D1D1B" stroke-width="9" stroke-miterlimit="10"/>
<path d="M108.651 100.514H104.457C98.189 100.514 93.1074 96.8929 93.1074 92.4267V63.0018C93.1074 58.5356 98.189 54.9146 104.457 54.9146H108.651C114.919 54.9146 120 58.5356 120 63.0018V92.4267C120 96.896 114.919 100.514 108.651 100.514Z" fill="#F5E7C4" stroke="#1D1D1B" stroke-width="9" stroke-miterlimit="10"/>
<path d="M50.3765 54.917C50.6318 70.4561 50.8872 85.9921 51.1426 101.531L50.3765 54.917Z" fill="#F5E7C4"/>
<path d="M50.3765 54.917C50.6318 70.4561 50.8872 85.9921 51.1426 101.531" stroke="#1D1D1B" stroke-width="9" stroke-miterlimit="10" stroke-linecap="round"/>
<path d="M29.5347 64.3584C29.79 76.1561 30.0454 87.9508 30.3008 99.7485L29.5347 64.3584Z" fill="#F5E7C4"/>
<path d="M29.5347 64.3584C29.79 76.1561 30.0454 87.9508 30.3008 99.7485" stroke="#1D1D1B" stroke-width="9" stroke-miterlimit="10" stroke-linecap="round"/>
<path d="M69.7461 64.3584C70.0015 76.1561 70.2569 87.9508 70.5122 99.7485L69.7461 64.3584Z" fill="#F5E7C4"/>
<path d="M69.7461 64.3584C70.0015 76.1561 70.2569 87.9508 70.5122 99.7485" stroke="#1D1D1B" stroke-width="9" stroke-miterlimit="10" stroke-linecap="round"/>
<path d="M12.3637 37.4445C11.9308 37.1792 3.64179 31.9265 5.529 24.339C6.60247 20.0178 11.0175 14.7712 18.9733 13.6639C27.7038 12.4487 34.2225 17.1246 34.7246 17.4947C34.7852 16.1037 35.2224 12.1896 39.3344 9.00961C44.7234 4.84262 54.9646 3.05986 62.3836 6.81971C67.9284 9.62958 70.5211 14.8453 68.9153 19.9592C73.4039 16.298 80.0395 14.5893 85.9219 15.7397C94.8732 17.4917 100.362 25.5388 96.5699 31.1801C93.4058 35.89 85.1903 36.8338 84.277 36.9294C85.2639 41.559 82.7188 46.0962 77.7454 48.4249C70.1792 51.9688 59.3666 49.2823 55.4667 44.3195C53.4886 41.8027 53.6617 39.1717 53.943 37.7282C40.0832 37.6357 26.2235 37.5401 12.3637 37.4445Z" fill="#F5E7C4" stroke="#1D1D1B" stroke-width="9" stroke-miterlimit="10" stroke-linecap="round"/>
</svg>
